<svg width="60" height="60" viewBox="0 0 60 60" fill="none" xmlns="http://www.w3.org/2000/svg">
<rect width="60" height="60" rx="30" fill="white"/>
<path d="M13.3507 21.4559C13.456 20.1513 14.0486 18.9343 15.0106 18.0468C15.9726 17.1594 17.2335 16.6667 18.5423 16.6667H41.459C42.7795 16.6667 44.0507 17.1682 45.0155 18.0699C45.9802 18.9715 46.5665 20.2059 46.6557 21.5234L30.0023 30.2917L13.3507 21.4559ZM13.334 23.8059V38.1251C13.334 39.5064 13.8827 40.8312 14.8595 41.8079C15.8362 42.7847 17.161 43.3334 18.5423 43.3334H41.459C42.8403 43.3334 44.1651 42.7847 45.1418 41.8079C46.1186 40.8312 46.6673 39.5064 46.6673 38.1251V23.8717L30.4857 32.3917C30.3355 32.4707 30.1684 32.5119 29.9988 32.5116C29.8291 32.5113 29.6622 32.4696 29.5123 32.3901L13.334 23.8059Z" fill="url(#paint0_linear_1285_92242)"/>
<defs>
<linearGradient id="paint0_linear_1285_92242" x1="13.334" y1="30.0001" x2="46.6673" y2="30.0001" gradientUnits="userSpaceOnUse">
<stop stop-color="#FF9D00"/>
<stop offset="0.5" stop-color="#FFC100"/>
<stop offset="1" stop-color="#FF9D00"/>
</linearGradient>
</defs>
</svg>
