<svg width="60" height="60" viewBox="0 0 60 60" fill="none" xmlns="http://www.w3.org/2000/svg">
<rect width="60" height="60" rx="30" fill="white"/>
<path d="M41.6673 24.9999C41.6673 23.4678 41.3656 21.9507 40.7792 20.5353C40.1929 19.1198 39.3336 17.8337 38.2502 16.7503C37.1669 15.667 35.8808 14.8076 34.4653 14.2213C33.0498 13.635 31.5327 13.3333 30.0007 13.3333C28.4686 13.3333 26.9515 13.635 25.536 14.2213C24.1205 14.8076 22.8344 15.667 21.7511 16.7503C20.6677 17.8337 19.8084 19.1198 19.2221 20.5353C18.6358 21.9507 18.334 23.4678 18.334 24.9999C18.334 27.3116 19.0157 29.4616 20.1757 31.2749H20.1623L30.0007 46.6666L39.839 31.2749H39.8273C41.0289 29.4026 41.6675 27.2246 41.6673 24.9999ZM30.0007 29.9999C28.6746 29.9999 27.4028 29.4731 26.4651 28.5355C25.5274 27.5978 25.0007 26.326 25.0007 24.9999C25.0007 23.6738 25.5274 22.4021 26.4651 21.4644C27.4028 20.5267 28.6746 19.9999 30.0007 19.9999C31.3267 19.9999 32.5985 20.5267 33.5362 21.4644C34.4739 22.4021 35.0007 23.6738 35.0007 24.9999C35.0007 26.326 34.4739 27.5978 33.5362 28.5355C32.5985 29.4731 31.3267 29.9999 30.0007 29.9999Z" fill="url(#paint0_linear_1285_92232)"/>
<defs>
<linearGradient id="paint0_linear_1285_92232" x1="18.334" y1="29.9999" x2="41.6673" y2="29.9999" gradientUnits="userSpaceOnUse">
<stop stop-color="#FF9D00"/>
<stop offset="0.5" stop-color="#FFC100"/>
<stop offset="1" stop-color="#FF9D00"/>
</linearGradient>
</defs>
</svg>
