<svg width="60" height="60" viewBox="0 0 60 60" fill="none" xmlns="http://www.w3.org/2000/svg">
<rect width="60" height="60" rx="30" fill="white"/>
<path d="M40.5431 47.4995C39.0181 47.4995 36.8759 46.948 33.6681 45.1558C29.7673 42.9683 26.7501 40.9487 22.8705 37.0792C19.1298 33.3409 17.3095 30.9206 14.7619 26.2847C11.8837 21.0503 12.3744 18.3066 12.9228 17.1339C13.5759 15.7323 14.54 14.8941 15.7861 14.062C16.4939 13.5983 17.2429 13.2008 18.0236 12.8745C18.1017 12.8409 18.1744 12.8089 18.2392 12.78C18.6259 12.6058 19.2119 12.3425 19.954 12.6237C20.4494 12.8097 20.8915 13.1901 21.5837 13.8737C23.0033 15.2737 24.9431 18.3917 25.6587 19.923C26.1392 20.955 26.4572 21.6362 26.458 22.4003C26.458 23.2948 26.008 23.9847 25.4619 24.7292C25.3595 24.8691 25.258 25.0026 25.1595 25.1323C24.565 25.9136 24.4345 26.1394 24.5205 26.5425C24.6947 27.3526 25.9939 29.7644 28.129 31.8948C30.2642 34.0253 32.6064 35.2425 33.4197 35.4159C33.84 35.5058 34.0705 35.3698 34.8767 34.7542C34.9923 34.6659 35.1111 34.5745 35.2353 34.4831C36.0681 33.8636 36.7259 33.4253 37.5994 33.4253H37.604C38.3642 33.4253 39.015 33.755 40.0931 34.2987C41.4994 35.0081 44.7111 36.923 46.1197 38.3441C46.8048 39.0347 47.1869 39.4753 47.3736 39.9698C47.6548 40.7144 47.39 41.298 47.2173 41.6886C47.1884 41.7534 47.1564 41.8245 47.1228 41.9034C46.7939 42.6828 46.3941 43.4302 45.9283 44.1362C45.0978 45.3784 44.2564 46.3401 42.8517 46.994C42.1304 47.3353 41.341 47.5081 40.5431 47.4995Z" fill="url(#paint0_linear_1285_92237)"/>
<defs>
<linearGradient id="paint0_linear_1285_92237" x1="12.5039" y1="30" x2="47.4968" y2="30" gradientUnits="userSpaceOnUse">
<stop stop-color="#FF9D00"/>
<stop offset="0.5" stop-color="#FFC100"/>
<stop offset="1" stop-color="#FF9D00"/>
</linearGradient>
</defs>
</svg>
