<svg width="33" height="32" viewBox="0 0 33 32" fill="none" xmlns="http://www.w3.org/2000/svg">
<path d="M24 1.33325H9.33333C5.28325 1.33325 2 4.6165 2 8.66659V23.3333C2 27.3833 5.28325 30.6666 9.33333 30.6666H24C28.0501 30.6666 31.3333 27.3833 31.3333 23.3333V8.66659C31.3333 4.6165 28.0501 1.33325 24 1.33325Z" stroke="url(#paint0_linear_2451_1863)" stroke-width="2.5" stroke-linecap="round" stroke-linejoin="round"/>
<path d="M24.7332 7.93286H24.7478M22.5332 15.0755C22.7142 16.2962 22.5057 17.5428 21.9373 18.6381C21.369 19.7334 20.4698 20.6216 19.3675 21.1764C18.2653 21.7312 17.0162 21.9243 15.7979 21.7282C14.5796 21.5322 13.4541 20.957 12.5816 20.0844C11.709 19.2119 11.1338 18.0864 10.9378 16.8681C10.7418 15.6498 10.9349 14.4007 11.4896 13.2985C12.0444 12.1962 12.9326 11.297 14.0279 10.7287C15.1232 10.1604 16.3699 9.95186 17.5905 10.1329C18.8356 10.3175 19.9883 10.8977 20.8783 11.7877C21.7684 12.6777 22.3485 13.8304 22.5332 15.0755Z" stroke="url(#paint1_linear_2451_1863)" stroke-width="2.5" stroke-linecap="round" stroke-linejoin="round"/>
<defs>
<linearGradient id="paint0_linear_2451_1863" x1="2" y1="15.9999" x2="31.3333" y2="15.9999" gradientUnits="userSpaceOnUse">
<stop stop-color="#FFC100"/>
<stop offset="1" stop-color="#FF9D00"/>
</linearGradient>
<linearGradient id="paint1_linear_2451_1863" x1="10.8633" y1="14.8678" x2="24.7478" y2="14.8678" gradientUnits="userSpaceOnUse">
<stop stop-color="#FFC100"/>
<stop offset="1" stop-color="#FF9D00"/>
</linearGradient>
</defs>
</svg>
