<svg width="33" height="32" viewBox="0 0 33 32" fill="none" xmlns="http://www.w3.org/2000/svg">
<path d="M27.0007 0C28.4151 0 29.7717 0.561903 30.7719 1.5621C31.7721 2.56229 32.334 3.91885 32.334 5.33333V26.6667C32.334 28.0812 31.7721 29.4377 30.7719 30.4379C29.7717 31.4381 28.4151 32 27.0007 32H5.66732C4.25283 32 2.89628 31.4381 1.89608 30.4379C0.895888 29.4377 0.333984 28.0812 0.333984 26.6667V5.33333C0.333984 3.91885 0.895888 2.56229 1.89608 1.5621C2.89628 0.561903 4.25283 0 5.66732 0H27.0007ZM27.0007 3.55556H5.66732C5.19582 3.55556 4.74364 3.74286 4.41024 4.07625C4.07684 4.40965 3.88954 4.86184 3.88954 5.33333V26.6667C3.88954 27.1382 4.07684 27.5903 4.41024 27.9237C4.74364 28.2571 5.19582 28.4444 5.66732 28.4444H27.0007C27.4721 28.4444 27.9243 28.2571 28.2577 27.9237C28.5911 27.5903 28.7784 27.1382 28.7784 26.6667V5.33333C28.7784 4.86184 28.5911 4.40965 28.2577 4.07625C27.9243 3.74286 27.4721 3.55556 27.0007 3.55556ZM9.22287 12.4444C9.65831 12.4445 10.0786 12.6044 10.404 12.8937C10.7294 13.1831 10.9373 13.5818 10.9882 14.0142L11.0007 14.2222V23.1111C11.0001 23.5642 10.8266 24.0001 10.5156 24.3295C10.2045 24.659 9.7794 24.8573 9.32706 24.8839C8.87472 24.9104 8.42931 24.7632 8.08184 24.4724C7.73437 24.1816 7.51106 23.7691 7.45754 23.3191L7.4451 23.1111V14.2222C7.4451 13.7507 7.6324 13.2985 7.9658 12.9651C8.29919 12.6317 8.75138 12.4444 9.22287 12.4444ZM14.5562 10.6667C14.9726 10.6666 15.3757 10.8127 15.6954 11.0794C16.0151 11.3461 16.231 11.7166 16.3055 12.1262C16.6636 11.9194 17.0334 11.7336 17.4131 11.5698C18.5989 11.0631 20.3749 10.784 21.9784 11.2871C22.8193 11.5538 23.6638 12.0516 24.2895 12.8996C24.8495 13.6551 25.1518 14.5742 25.2122 15.6071L25.2229 16V23.1111C25.2224 23.5642 25.0489 24.0001 24.7378 24.3295C24.4268 24.659 24.0016 24.8573 23.5493 24.8839C23.0969 24.9104 22.6515 24.7632 22.3041 24.4724C21.9566 24.1816 21.7333 23.7691 21.6798 23.3191L21.6673 23.1111V16C21.6673 15.4133 21.5251 15.1396 21.4327 15.0133C21.2998 14.8485 21.117 14.7312 20.9118 14.6791C20.2931 14.4836 19.4024 14.5867 18.8104 14.8391C17.9215 15.2196 17.1073 15.8169 16.5527 16.3698L16.334 16.6044V23.1111C16.3335 23.5642 16.16 24.0001 15.8489 24.3295C15.5379 24.659 15.1127 24.8573 14.6604 24.8839C14.2081 24.9104 13.7626 24.7632 13.4152 24.4724C13.0677 24.1816 12.8444 23.7691 12.7909 23.3191L12.7784 23.1111V12.4444C12.7784 11.9729 12.9657 11.5208 13.2991 11.1874C13.6325 10.854 14.0847 10.6667 14.5562 10.6667ZM9.22287 7.11111C9.69437 7.11111 10.1466 7.29841 10.48 7.63181C10.8133 7.96521 11.0007 8.41739 11.0007 8.88889C11.0007 9.36038 10.8133 9.81257 10.48 10.146C10.1466 10.4794 9.69437 10.6667 9.22287 10.6667C8.75138 10.6667 8.29919 10.4794 7.9658 10.146C7.6324 9.81257 7.4451 9.36038 7.4451 8.88889C7.4451 8.41739 7.6324 7.96521 7.9658 7.63181C8.29919 7.29841 8.75138 7.11111 9.22287 7.11111Z" fill="url(#paint0_linear_2451_1871)"/>
<defs>
<linearGradient id="paint0_linear_2451_1871" x1="0.333984" y1="16" x2="32.334" y2="16" gradientUnits="userSpaceOnUse">
<stop stop-color="#FFC100"/>
<stop offset="1" stop-color="#FF9D00"/>
</linearGradient>
</defs>
</svg>
