<svg width="30" height="30" viewBox="0 0 30 30" fill="none" xmlns="http://www.w3.org/2000/svg">
<rect width="30" height="30" rx="15" fill="#FFC100"/>
<path d="M7.008 11.1551C7.05856 10.5681 7.34303 10.0204 7.80479 9.62104C8.26656 9.22169 8.87177 8.99997 9.5 9H20.5C21.1338 8.99997 21.744 9.22566 22.2071 9.6314C22.6702 10.0371 22.9516 10.5926 22.9944 11.1855L15.0008 15.1313L7.008 11.1551ZM7 12.2126V18.6562C7 19.2779 7.26339 19.874 7.73223 20.3135C8.20107 20.7531 8.83696 21 9.5 21H20.5C21.163 21 21.7989 20.7531 22.2678 20.3135C22.7366 19.874 23 19.2779 23 18.6562V12.2422L15.2328 16.0763C15.1607 16.1118 15.0805 16.1303 14.9991 16.1302C14.9177 16.13 14.8375 16.1113 14.7656 16.0755L7 12.2126Z" fill="white"/>
</svg>
