<svg width="31" height="30" viewBox="0 0 31 30" fill="none" xmlns="http://www.w3.org/2000/svg">
<rect x="0.5" width="30" height="30" rx="15" fill="#FFC100"/>
<path d="M7.508 11.1551C7.55856 10.5681 7.84303 10.0204 8.30479 9.62104C8.76656 9.22169 9.37177 8.99997 10 9H21C21.6338 8.99997 22.244 9.22566 22.7071 9.6314C23.1702 10.0371 23.4516 10.5926 23.4944 11.1855L15.5008 15.1313L7.508 11.1551ZM7.5 12.2126V18.6562C7.5 19.2779 7.76339 19.874 8.23223 20.3135C8.70107 20.7531 9.33696 21 10 21H21C21.663 21 22.2989 20.7531 22.7678 20.3135C23.2366 19.874 23.5 19.2779 23.5 18.6562V12.2422L15.7328 16.0763C15.6607 16.1118 15.5805 16.1303 15.4991 16.1302C15.4177 16.13 15.3375 16.1113 15.2656 16.0755L7.5 12.2126Z" fill="white"/>
</svg>
