<svg width="21" height="20" viewBox="0 0 21 20" fill="none" xmlns="http://www.w3.org/2000/svg">
<path d="M2.05965 -2.49999H2.06084L18.9392 -2.49999L18.9403 -2.49999C19.4739 -2.50126 20.0025 -2.39709 20.4956 -2.19347C20.9888 -1.98984 21.4369 -1.69077 21.8141 -1.31344C22.1914 -0.936116 22.4903 -0.487966 22.6938 0.00525689C22.8973 0.498482 23.0014 1.02706 23 1.56061V1.56192V5.91456C22.3884 5.93554 21.6709 6.08547 21.1253 6.35998C20.4701 6.66804 19.8945 7.12252 19.4429 7.68839C18.6856 8.62775 18.2443 9.87209 18.1374 11.236L18.1372 11.2374C18.1169 11.5074 18.1085 11.778 18.112 12.0487L18.1121 12.0538C18.1481 13.5895 18.581 15.0116 19.4145 16.0615C20.2503 17.1142 21.4692 17.7647 23 17.7766L23 18.4392L23 18.4404C23.0013 18.9738 22.8971 19.5023 22.6936 19.9954C22.49 20.4885 22.191 20.9366 21.8138 21.3138C21.4366 21.691 20.9885 21.99 20.4954 22.1936C20.0023 22.3971 19.4738 22.5013 18.9403 22.5H18.9392L2.06084 22.5L2.05965 22.5C1.52617 22.5013 0.997703 22.3971 0.504591 22.1936C0.0114768 21.99 -0.436559 21.691 -0.813784 21.3138C-1.19101 20.9366 -1.48999 20.4885 -1.69356 19.9954L-2.15537 20.1861L-1.69356 19.9954C-1.89712 19.5023 -2.00126 18.9738 -1.99999 18.4404V18.4392L-1.99999 1.56084L-1.99999 1.55965C-2.00126 1.02617 -1.89712 0.497702 -1.69356 0.00459003C-1.48999 -0.488522 -1.19101 -0.936558 -0.813784 -1.31378C-0.436558 -1.69101 0.0114777 -1.98999 0.50459 -2.19356C0.997702 -2.39712 1.52617 -2.50126 2.05965 -2.49999ZM2.27534 2.54826H1.77875L1.77535 3.04483L1.77427 3.203L1.7715 3.60691L2.16581 3.69452L2.18325 3.69839C2.1836 3.69847 2.18395 3.69855 2.18431 3.69863C2.55231 3.78212 2.71168 3.86449 2.79508 3.95193C2.86214 4.02225 2.94642 4.16789 2.94642 4.56926V15.4318C2.94642 15.8318 2.86197 15.9773 2.79461 16.0477C2.71084 16.1353 2.55133 16.2175 2.18575 16.3008L2.16912 16.3043L1.77209 16.3878V16.7936V16.9528V17.4528H2.27209H5.33575H5.83575V16.9528V16.7936V16.3836L5.43377 16.3033L5.41828 16.3002C5.05439 16.2176 4.89648 16.1358 4.81372 16.049C4.74682 15.9789 4.66251 15.8332 4.66251 15.4318V7.65473L8.6965 17.1473L8.82587 17.4517H9.15667H9.43942H9.77003L9.89949 17.1475L14.0798 7.3244V15.6748C14.0533 15.9386 13.98 16.0393 13.914 16.0973C13.8227 16.1775 13.6595 16.2517 13.3281 16.3264L13.3194 16.3284L13.3107 16.3306L13.2902 16.336L12.9174 16.4341V16.8196V16.9767V17.4767H13.4174H18.7507H19.2507V16.9767V16.8196V16.4097L18.8487 16.3293L18.8335 16.3262C18.5056 16.2514 18.3398 16.1771 18.2458 16.0955C18.1774 16.0362 18.1037 15.9355 18.0774 15.6758L18.0743 5.06926H18.0774V4.56926C18.0774 4.1679 18.1617 4.02216 18.2287 3.9518C18.3118 3.8646 18.4704 3.78247 18.8359 3.69921L18.8526 3.6957L19.2496 3.61213V3.20642V3.04826V2.54826H18.7496H14.5636H14.233L14.1035 2.85245L10.6745 10.9091L7.24752 2.85254L7.11809 2.54826H6.78742H2.27534ZM23 7.53552V9.90625H21.7052C21.7826 9.21357 21.9483 8.64378 22.1757 8.23476C22.4166 7.80157 22.6981 7.5892 23 7.53552ZM21.6105 11.4566H23V14.1123C22.2355 13.6049 21.6742 12.6406 21.6105 11.4566Z" stroke="url(#paint0_linear_2451_1974)"/>
<defs>
<linearGradient id="paint0_linear_2451_1974" x1="-2.5" y1="10" x2="23.5" y2="10" gradientUnits="userSpaceOnUse">
<stop stop-color="#FFC100"/>
<stop offset="1" stop-color="#FF9D00"/>
</linearGradient>
</defs>
</svg>
