<svg width="30" height="30" viewBox="0 0 30 30" fill="none" xmlns="http://www.w3.org/2000/svg">
<rect width="30" height="30" rx="15" fill="#FFC100"/>
<path d="M19.5193 22.4999C18.8656 22.4999 17.9473 22.2635 16.5722 21.4954C14.9001 20.5579 13.6068 19.6924 11.9437 18.034C10.3403 16.4318 9.55997 15.3945 8.46789 13.4077C7.23416 11.1644 7.44447 9.98845 7.67956 9.48587C7.95953 8.8852 8.37278 8.52593 8.90693 8.16934C9.21033 7.9706 9.53139 7.80023 9.86606 7.66041C9.89955 7.64601 9.93069 7.63228 9.95849 7.61989C10.1243 7.54523 10.3754 7.43239 10.6936 7.55293C10.9059 7.63262 11.0954 7.79568 11.3922 8.08865C12.0006 8.68865 12.8322 10.0249 13.1389 10.6812C13.3449 11.1235 13.4812 11.4155 13.4815 11.7429C13.4815 12.1263 13.2886 12.422 13.0545 12.741C13.0107 12.801 12.9671 12.8582 12.9249 12.9138C12.6701 13.2486 12.6142 13.3454 12.651 13.5182C12.7257 13.8654 13.2826 14.899 14.1979 15.8121C15.1131 16.7251 16.1171 17.2468 16.4657 17.3211C16.6459 17.3596 16.7447 17.3014 17.0903 17.0375C17.1399 16.9997 17.1908 16.9605 17.244 16.9213C17.601 16.6558 17.883 16.468 18.2574 16.468H18.2594C18.5853 16.468 18.8642 16.6093 19.3264 16.8423C19.9292 17.1463 21.3059 17.967 21.9097 18.576C22.2034 18.872 22.3672 19.0609 22.4472 19.2728C22.5678 19.5919 22.4542 19.842 22.3802 20.0094C22.3678 20.0372 22.3541 20.0677 22.3397 20.1015C22.1987 20.4355 22.0273 20.7558 21.8277 21.0584C21.4717 21.5908 21.111 22.003 20.5089 22.2832C20.1997 22.4295 19.8613 22.5036 19.5193 22.4999Z" fill="white"/>
</svg>
