<svg width="31" height="30" viewBox="0 0 31 30" fill="none" xmlns="http://www.w3.org/2000/svg">
<rect x="0.5" width="30" height="30" rx="15" fill="#FFC100"/>
<path d="M20.0193 22.4999C19.3656 22.4999 18.4473 22.2635 17.0722 21.4954C15.4001 20.5579 14.1068 19.6924 12.4437 18.034C10.8403 16.4318 10.06 15.3945 8.96789 13.4077C7.73416 11.1644 7.94447 9.98845 8.17956 9.48587C8.45953 8.8852 8.87278 8.52593 9.40693 8.16934C9.71033 7.9706 10.0314 7.80023 10.3661 7.66041C10.3995 7.64601 10.4307 7.63228 10.4585 7.61989C10.6243 7.54523 10.8754 7.43239 11.1936 7.55293C11.4059 7.63262 11.5954 7.79568 11.8922 8.08865C12.5006 8.68865 13.3322 10.0249 13.6389 10.6812C13.8449 11.1235 13.9812 11.4155 13.9815 11.7429C13.9815 12.1263 13.7886 12.422 13.5545 12.741C13.5107 12.801 13.4671 12.8582 13.4249 12.9138C13.1701 13.2486 13.1142 13.3454 13.151 13.5182C13.2257 13.8654 13.7826 14.899 14.6979 15.8121C15.6131 16.7251 16.6171 17.2468 16.9657 17.3211C17.1459 17.3596 17.2447 17.3014 17.5903 17.0375C17.6399 16.9997 17.6908 16.9605 17.744 16.9213C18.101 16.6558 18.383 16.468 18.7574 16.468H18.7594C19.0853 16.468 19.3642 16.6093 19.8264 16.8423C20.4292 17.1463 21.8059 17.967 22.4097 18.576C22.7034 18.872 22.8672 19.0609 22.9472 19.2728C23.0678 19.5919 22.9542 19.842 22.8802 20.0094C22.8678 20.0372 22.8541 20.0677 22.8397 20.1015C22.6987 20.4355 22.5273 20.7558 22.3277 21.0584C21.9717 21.5908 21.611 22.003 21.0089 22.2832C20.6997 22.4295 20.3613 22.5036 20.0193 22.4999Z" fill="white"/>
</svg>
