<svg width="55" height="35" viewBox="0 0 55 35" fill="none" xmlns="http://www.w3.org/2000/svg">
<path d="M5.73211 6.68818C5.53502 6.87046 5.37865 7.08697 5.27196 7.32533C5.16527 7.56368 5.11035 7.81919 5.11035 8.07724C5.11035 8.33529 5.16527 8.5908 5.27196 8.82916C5.37865 9.06751 5.53502 9.28403 5.73211 9.46631L13.9813 17.1111L5.73211 24.7559C5.33458 25.1243 5.11125 25.6239 5.11125 26.1449C5.11125 26.6659 5.33458 27.1656 5.73211 27.534C6.12964 27.9024 6.66881 28.1094 7.231 28.1094C7.79319 28.1094 8.33235 27.9024 8.72988 27.534L18.4886 18.4903C18.6857 18.308 18.8421 18.0915 18.9487 17.8532C19.0554 17.6148 19.1104 17.3593 19.1104 17.1012C19.1104 16.8432 19.0554 16.5877 18.9487 16.3493C18.8421 16.111 18.6857 15.8945 18.4886 15.7122L8.72988 6.66847C7.92197 5.91976 6.56128 5.91976 5.73211 6.68818Z" fill="white"/>
<path d="M20.7321 6.68818C20.535 6.87046 20.3786 7.08697 20.272 7.32533C20.1653 7.56368 20.1104 7.81919 20.1104 8.07724C20.1104 8.33529 20.1653 8.5908 20.272 8.82916C20.3786 9.06751 20.535 9.28403 20.7321 9.46631L28.9813 17.1111L20.7321 24.7559C20.3346 25.1243 20.1113 25.6239 20.1113 26.1449C20.1113 26.6659 20.3346 27.1656 20.7321 27.534C21.1296 27.9024 21.6688 28.1094 22.231 28.1094C22.7932 28.1094 23.3324 27.9024 23.7299 27.534L33.4886 18.4903C33.6857 18.308 33.8421 18.0915 33.9487 17.8532C34.0554 17.6148 34.1104 17.3593 34.1104 17.1012C34.1104 16.8432 34.0554 16.5877 33.9487 16.3493C33.8421 16.111 33.6857 15.8945 33.4886 15.7122L23.7299 6.66847C22.922 5.91976 21.5613 5.91976 20.7321 6.68818Z" fill="white"/>
<path d="M36.7321 6.68818C36.535 6.87046 36.3786 7.08697 36.272 7.32533C36.1653 7.56368 36.1104 7.81919 36.1104 8.07724C36.1104 8.33529 36.1653 8.5908 36.272 8.82916C36.3786 9.06751 36.535 9.28403 36.7321 9.46631L44.9813 17.1111L36.7321 24.7559C36.3346 25.1243 36.1113 25.6239 36.1113 26.1449C36.1113 26.6659 36.3346 27.1656 36.7321 27.534C37.1296 27.9024 37.6688 28.1094 38.231 28.1094C38.7932 28.1094 39.3324 27.9024 39.7299 27.534L49.4886 18.4903C49.6857 18.308 49.8421 18.0915 49.9487 17.8532C50.0554 17.6148 50.1104 17.3593 50.1104 17.1012C50.1104 16.8432 50.0554 16.5877 49.9487 16.3493C49.8421 16.111 49.6857 15.8945 49.4886 15.7122L39.7299 6.66847C38.922 5.91976 37.5613 5.91976 36.7321 6.68818Z" fill="white"/>
</svg>
