<svg width="1280" height="911" viewBox="0 0 1280 911" fill="none" xmlns="http://www.w3.org/2000/svg">
<path d="M304.45 -14.2227C318.506 58.2105 317.002 92.156 275.511 125.218C251.72 143.933 218.331 145.91 151.573 146.369C90.8488 147.63 55.9456 163.603 55.9456 163.603C55.9456 163.603 10.5856 187.392 -12 203.555V-14.2227H304.45Z" fill="url(#paint0_linear_0_1)"/>
<path opacity="0.6" d="M911.706 572.064C911.706 572.064 750.039 488.723 688.205 561.498C646.451 610.64 702.743 687.651 654.817 725.559C606.891 763.466 612.115 749.375 514.534 764.866C416.952 780.356 494.903 906.121 538.801 970.944" stroke="url(#paint1_linear_0_1)" stroke-width="0.888889"/>
<path opacity="0.5" d="M836.68 829.208C763.68 795.296 722.339 710.718 714.829 600.918C707.323 491.166 733.659 356.51 795.682 223C857.704 89.4895 943.619 -17.4897 1032.33 -82.543C1121.08 -147.625 1212.38 -170.586 1285.38 -136.673C1358.38 -102.761 1399.72 -18.1831 1407.23 91.6167C1414.74 201.368 1388.4 336.025 1326.38 469.535C1264.36 603.045 1178.44 710.025 1089.73 775.078C1000.98 840.16 909.68 863.121 836.68 829.208Z" stroke="url(#paint2_linear_0_1)" stroke-opacity="0.5" stroke-width="2.3515"/>
<path opacity="0.5" d="M-36.8142 -145.161C67.3299 -247.354 250.417 -230.121 372.142 -106.071C493.868 17.9784 507.635 201.359 403.491 303.551C299.347 405.744 116.26 388.511 -5.46514 264.462C-127.19 140.412 -140.958 -42.9682 -36.8142 -145.161Z" stroke="url(#paint3_linear_0_1)" stroke-width="2.3515"/>
<path opacity="0.6" d="M151.539 978.32C151.539 978.32 219.406 893.134 194.844 840.437C173.973 795.659 104.617 820.274 86.4177 774.445C68.218 728.616 129.001 699.643 125.693 595.012C122.384 490.382 -82.6841 500.011 -76.1975 395.96" stroke="url(#paint4_linear_0_1)" stroke-width="0.888889"/>
<path opacity="0.6" d="M838.539 -53.7227C838.539 -53.7227 692.806 -59.0757 649.059 32.461C611.887 110.24 688.686 182.687 648.436 257.787C608.186 332.887 532.33 277.331 413.769 394.282C295.208 511.234 450.962 618.09 439.558 761.332C434.195 828.697 413.769 932.444 413.769 932.444" stroke="url(#paint5_linear_0_1)" stroke-width="0.888889"/>
<defs>
<linearGradient id="paint0_linear_0_1" x1="-12" y1="94.6662" x2="312.444" y2="94.6662" gradientUnits="userSpaceOnUse">
<stop stop-color="#FE8900"/>
<stop offset="1" stop-color="#FFC931"/>
</linearGradient>
<linearGradient id="paint1_linear_0_1" x1="805.596" y1="523.496" x2="575.291" y2="984.041" gradientUnits="userSpaceOnUse">
<stop stop-color="#FE8900"/>
<stop offset="0.976667" stop-color="#FFBC00"/>
</linearGradient>
<linearGradient id="paint2_linear_0_1" x1="1285.88" y1="-137.74" x2="746.002" y2="728.002" gradientUnits="userSpaceOnUse">
<stop stop-color="white"/>
<stop offset="1" stop-color="#FF9D00"/>
</linearGradient>
<linearGradient id="paint3_linear_0_1" x1="404.315" y1="304.391" x2="-37.6377" y2="-146" gradientUnits="userSpaceOnUse">
<stop stop-color="#FEDC3F"/>
<stop offset="1" stop-color="#FE8900"/>
</linearGradient>
<linearGradient id="paint4_linear_0_1" x1="233.215" y1="913.756" x2="-146.102" y2="424.45" gradientUnits="userSpaceOnUse">
<stop stop-color="#FE8900"/>
<stop offset="1" stop-color="#FFBC00"/>
</linearGradient>
<linearGradient id="paint5_linear_0_1" x1="706.999" y1="-100.879" x2="321.601" y2="933.067" gradientUnits="userSpaceOnUse">
<stop stop-color="#FE8900"/>
<stop offset="1" stop-color="#FFBC00"/>
</linearGradient>
</defs>
</svg>
