<svg width="439" height="686" viewBox="0 0 439 686" fill="none" xmlns="http://www.w3.org/2000/svg">
<path d="M349.846 137.695C391.183 98.7893 377.189 -13 377.189 -13H558.475V377.614C547.034 355.32 526.46 337.152 498.473 337.152C470.486 337.152 450.973 362.83 410.265 403.811C383.529 427.804 369.075 432.081 326.736 430.785C284.398 429.49 204.18 348.046 226.661 267.9C249.143 187.754 308.51 176.601 349.846 137.695Z" stroke="#FF9D00" stroke-width="0.510669"/>
<path d="M319.652 230.149C423.725 178.698 353.918 0 353.918 0H556V906C527.192 876.517 504.335 733.669 433.872 733.669C363.409 733.669 375.58 566.084 273.089 620.279C205.776 652.008 181.609 642.171 95.5 620.279C9.39066 598.387 -29.1013 497.489 27.4999 391.5C84.1012 285.511 215.579 281.6 319.652 230.149Z" stroke="#FF9D00" stroke-width="0.510669"/>
</svg>
