<svg width="17" height="16" viewBox="0 0 17 16" fill="none" xmlns="http://www.w3.org/2000/svg">
<path d="M5.6124 1.07276L5.75932 1.01164C7.25675 0.426365 8.9039 0.340263 10.4561 0.768582C12.0598 1.2111 13.4708 2.17751 14.4656 3.51519C15.4604 4.8529 15.9821 6.48539 15.9479 8.15428C15.9137 9.82316 15.3255 11.4327 14.2767 12.7283L13.9946 13.0767L14.3104 13.395L15.9171 15.0146C16.0941 15.1931 15.9651 15.4933 15.7201 15.4933H15.7197L8.57936 15.5H8.57889H8.36693C6.64848 15.4748 4.99094 14.8564 3.67353 13.7486C2.3552 12.64 1.45811 11.1091 1.13392 9.41387C0.809719 7.71864 1.07834 5.9632 1.89433 4.44367C2.71031 2.92417 4.02359 1.73372 5.6124 1.07276ZM10.4958 3.11021L10.4026 3.07093H10.4003C9.7857 2.82339 9.12983 2.69383 8.46685 2.68939C7.76903 2.68472 7.07724 2.81874 6.43143 3.08369C5.78562 3.34864 5.19864 3.73924 4.70434 4.23286C4.21004 4.72649 3.81822 5.31335 3.55141 5.95953C3.28461 6.6057 3.1481 7.29844 3.14972 7.99774C3.15135 8.69705 3.29107 9.38914 3.56086 10.0341C3.83066 10.679 4.2252 11.264 4.72179 11.7553C5.21815 12.2464 5.80662 12.6342 6.45331 12.8961C7.74592 13.4248 9.19475 13.419 10.4831 12.8797C11.7716 12.3404 12.7944 11.3115 13.3284 10.0185C13.8624 8.72553 13.8643 7.27322 13.3337 5.97887C12.8031 4.68446 11.783 3.65293 10.4958 3.11021Z" fill="white" stroke="url(#paint0_linear_2451_1980)"/>
<defs>
<linearGradient id="paint0_linear_2451_1980" x1="0.5" y1="8" x2="16.5" y2="8" gradientUnits="userSpaceOnUse">
<stop stop-color="#FFC100"/>
<stop offset="1" stop-color="#FF9D00"/>
</linearGradient>
</defs>
</svg>
